<?xml version="1.0" encoding="UTF-8"?>
<svg xmlns="http://www.w3.org/2000/svg">
    <defs>
        <symbol viewBox="0 0 17 13" id="mail-ico">
            <g fill-rule="evenodd">
                <path style="fill-rule: evenodd;" d="M377.632,23.006q0.322,0.222,1.944,1.316t2.486,1.685l0.4,0.282q0.308,0.218.512,0.351c0.136,0.089.3,0.189,0.493,0.3a2.9,2.9,0,0,0,.546.249,1.54,1.54,0,0,0,.474.083h0.019a1.541,1.541,0,0,0,.475-0.083,2.891,2.891,0,0,0,.545-0.249c0.193-.111.358-0.211,0.493-0.3s0.307-.206.513-0.351,0.34-.238.4-0.282l4.44-3a4.454,4.454,0,0,0,1.157-1.136A2.4,2.4,0,0,0,393,20.476a1.4,1.4,0,0,0-.451-1.044A1.485,1.485,0,0,0,391.482,19H377.518a1.37,1.37,0,0,0-1.124.48,1.83,1.83,0,0,0-.394,1.2,2.123,2.123,0,0,0,.522,1.26A4.622,4.622,0,0,0,377.632,23.006Zm14.419,0.988q-3.111,2.05-4.724,3.186-0.54.388-.878,0.6a5.442,5.442,0,0,1-.9.443,2.793,2.793,0,0,1-1.043.226h-0.02a2.793,2.793,0,0,1-1.043-.226,5.5,5.5,0,0,1-.9-0.443q-0.336-.217-0.877-0.6-1.281-.914-4.715-3.186a4.992,4.992,0,0,1-.958-0.8v7.333a1.4,1.4,0,0,0,.446,1.044,1.478,1.478,0,0,0,1.072.434h13.964a1.48,1.48,0,0,0,1.072-.434A1.405,1.405,0,0,0,393,30.523V23.191A5.186,5.186,0,0,1,392.051,23.994Z" transform="translate(-376 -19)"/>
            </g>
        </symbol>
		<symbol viewBox="0 0 512 512" id="book-ico">
            <g fill-rule="evenodd">
                <path d="M448,64h-48V16c0-8.832-7.168-16-16-16H96C69.536,0,48,21.536,48,48v400c0,35.296,28.704,64,64,64h336
			c8.832,0,16-7.168,16-16V80C464,71.168,456.832,64,448,64z M320,416H160c-8.832,0-16-7.168-16-16c0-44.128,35.904-80,80-80h32
			c44.096,0,80,35.872,80,80C336,408.832,328.832,416,320,416z M176,224c0-35.296,28.704-64,64-64s64,28.704,64,64s-28.704,64-64,64
			C204.704,288,176,259.296,176,224z M368,64H96c-8.832,0-16-7.168-16-16c0-8.832,7.168-16,16-16h272V64z"/>
            </g>
        </symbol>
		
		
		<symbol viewBox="0 0 15 15" id="watsup-ico">
            <g fill-rule="evenodd">
               <path d="M791,23.307a7.376,7.376,0,0,1-10.923,6.4L776,31l1.329-3.92a7.235,7.235,0,0,1-1.057-3.773A7.364,7.364,0,0,1,791,23.307Zm-7.364-6.143a6.174,6.174,0,0,0-6.191,6.143,6.074,6.074,0,0,0,1.18,3.6l-0.774,2.281,2.379-.756A6.159,6.159,0,1,0,783.636,17.164Zm3.719,7.826a0.93,0.93,0,0,0-.346-0.209c-0.181-.09-1.069-0.523-1.234-0.582a0.283,0.283,0,0,0-.406.09c-0.12.179-.466,0.582-0.572,0.7a0.277,0.277,0,0,1-.391.045,4.946,4.946,0,0,1-1.451-.889,5.375,5.375,0,0,1-1-1.24,0.259,0.259,0,0,1,.079-0.365c0.081-.08.18-0.209,0.271-0.314a1.216,1.216,0,0,0,.18-0.3,0.328,0.328,0,0,0-.015-0.314c-0.045-.09-0.406-0.971-0.557-1.33s-0.3-.3-0.406-0.3-0.225-.015-0.346-0.015a0.664,0.664,0,0,0-.481.224,2,2,0,0,0-.632,1.494,3.471,3.471,0,0,0,.737,1.852,7.383,7.383,0,0,0,3.084,2.7c1.835,0.717,1.835.478,2.166,0.448a1.822,1.822,0,0,0,1.218-.851A1.486,1.486,0,0,0,787.355,24.989Z" transform="translate(-776 -16)"/>
            </g>
        </symbol>
		<symbol viewBox="0 0 96.124 96.123" id="fb-ico">
            <g fill-rule="evenodd">
               <path d="M72.089,0.02L59.624,0C45.62,0,36.57,9.285,36.57,23.656v10.907H24.037c-1.083,0-1.96,0.878-1.96,1.961v15.803
		c0,1.083,0.878,1.96,1.96,1.96h12.533v39.876c0,1.083,0.877,1.96,1.96,1.96h16.352c1.083,0,1.96-0.878,1.96-1.96V54.287h14.654
		c1.083,0,1.96-0.877,1.96-1.96l0.006-15.803c0-0.52-0.207-1.018-0.574-1.386c-0.367-0.368-0.867-0.575-1.387-0.575H56.842v-9.246
		c0-4.444,1.059-6.7,6.848-6.7l8.397-0.003c1.082,0,1.959-0.878,1.959-1.96V1.98C74.046,0.899,73.17,0.022,72.089,0.02z"/>
            </g>
        </symbol>
		<symbol viewBox="0 0 612 612" id="tw-ico">
            <g fill-rule="evenodd">
               <path d="M612,116.258c-22.525,9.981-46.694,16.75-72.088,19.772c25.929-15.527,45.777-40.155,55.184-69.411
			c-24.322,14.379-51.169,24.82-79.775,30.48c-22.907-24.437-55.49-39.658-91.63-39.658c-69.334,0-125.551,56.217-125.551,125.513
			c0,9.828,1.109,19.427,3.251,28.606C197.065,206.32,104.556,156.337,42.641,80.386c-10.823,18.51-16.98,40.078-16.98,63.101
			c0,43.559,22.181,81.993,55.835,104.479c-20.575-0.688-39.926-6.348-56.867-15.756v1.568c0,60.806,43.291,111.554,100.693,123.104
			c-10.517,2.83-21.607,4.398-33.08,4.398c-8.107,0-15.947-0.803-23.634-2.333c15.985,49.907,62.336,86.199,117.253,87.194
			c-42.947,33.654-97.099,53.655-155.916,53.655c-10.134,0-20.116-0.612-29.944-1.721c55.567,35.681,121.536,56.485,192.438,56.485
			c230.948,0,357.188-191.291,357.188-357.188l-0.421-16.253C573.872,163.526,595.211,141.422,612,116.258z"/>
            </g>
        </symbol>
		<symbol viewBox="0 0 512 512" id="you-ico">
            <g fill-rule="evenodd">
               <path d="M490.24,113.92c-13.888-24.704-28.96-29.248-59.648-30.976C399.936,80.864,322.848,80,256.064,80
			c-66.912,0-144.032,0.864-174.656,2.912c-30.624,1.76-45.728,6.272-59.744,31.008C7.36,138.592,0,181.088,0,255.904
			C0,255.968,0,256,0,256c0,0.064,0,0.096,0,0.096v0.064c0,74.496,7.36,117.312,21.664,141.728
			c14.016,24.704,29.088,29.184,59.712,31.264C112.032,430.944,189.152,432,256.064,432c66.784,0,143.872-1.056,174.56-2.816
			c30.688-2.08,45.76-6.56,59.648-31.264C504.704,373.504,512,330.688,512,256.192c0,0,0-0.096,0-0.16c0,0,0-0.064,0-0.096
			C512,181.088,504.704,138.592,490.24,113.92z M192,352V160l160,96L192,352z"/>
            </g>
        </symbol>
		<symbol viewBox="0 0 548.358 548.358" id="vk-ico">
            <g fill-rule="evenodd">
               <path d="M545.451,400.298c-0.664-1.431-1.283-2.618-1.858-3.569c-9.514-17.135-27.695-38.167-54.532-63.102l-0.567-0.571
		l-0.284-0.28l-0.287-0.287h-0.288c-12.18-11.611-19.893-19.418-23.123-23.415c-5.91-7.614-7.234-15.321-4.004-23.13
		c2.282-5.9,10.854-18.36,25.696-37.397c7.807-10.089,13.99-18.175,18.556-24.267c32.931-43.78,47.208-71.756,42.828-83.939
		l-1.701-2.847c-1.143-1.714-4.093-3.282-8.846-4.712c-4.764-1.427-10.853-1.663-18.278-0.712l-82.224,0.568
		c-1.332-0.472-3.234-0.428-5.712,0.144c-2.475,0.572-3.713,0.859-3.713,0.859l-1.431,0.715l-1.136,0.859
		c-0.952,0.568-1.999,1.567-3.142,2.995c-1.137,1.423-2.088,3.093-2.848,4.996c-8.952,23.031-19.13,44.444-30.553,64.238
		c-7.043,11.803-13.511,22.032-19.418,30.693c-5.899,8.658-10.848,15.037-14.842,19.126c-4,4.093-7.61,7.372-10.852,9.849
		c-3.237,2.478-5.708,3.525-7.419,3.142c-1.715-0.383-3.33-0.763-4.859-1.143c-2.663-1.714-4.805-4.045-6.42-6.995
		c-1.622-2.95-2.714-6.663-3.285-11.136c-0.568-4.476-0.904-8.326-1-11.563c-0.089-3.233-0.048-7.806,0.145-13.706
		c0.198-5.903,0.287-9.897,0.287-11.991c0-7.234,0.141-15.085,0.424-23.555c0.288-8.47,0.521-15.181,0.716-20.125
		c0.194-4.949,0.284-10.185,0.284-15.705s-0.336-9.849-1-12.991c-0.656-3.138-1.663-6.184-2.99-9.137
		c-1.335-2.95-3.289-5.232-5.853-6.852c-2.569-1.618-5.763-2.902-9.564-3.856c-10.089-2.283-22.936-3.518-38.547-3.71
		c-35.401-0.38-58.148,1.906-68.236,6.855c-3.997,2.091-7.614,4.948-10.848,8.562c-3.427,4.189-3.905,6.475-1.431,6.851
		c11.422,1.711,19.508,5.804,24.267,12.275l1.715,3.429c1.334,2.474,2.666,6.854,3.999,13.134c1.331,6.28,2.19,13.227,2.568,20.837
		c0.95,13.897,0.95,25.793,0,35.689c-0.953,9.9-1.853,17.607-2.712,23.127c-0.859,5.52-2.143,9.993-3.855,13.418
		c-1.715,3.426-2.856,5.52-3.428,6.28c-0.571,0.76-1.047,1.239-1.425,1.427c-2.474,0.948-5.047,1.431-7.71,1.431
		c-2.667,0-5.901-1.334-9.707-4c-3.805-2.666-7.754-6.328-11.847-10.992c-4.093-4.665-8.709-11.184-13.85-19.558
		c-5.137-8.374-10.467-18.271-15.987-29.691l-4.567-8.282c-2.855-5.328-6.755-13.086-11.704-23.267
		c-4.952-10.185-9.329-20.037-13.134-29.554c-1.521-3.997-3.806-7.04-6.851-9.134l-1.429-0.859c-0.95-0.76-2.475-1.567-4.567-2.427
		c-2.095-0.859-4.281-1.475-6.567-1.854l-78.229,0.568c-7.994,0-13.418,1.811-16.274,5.428l-1.143,1.711
		C0.288,140.146,0,141.668,0,143.763c0,2.094,0.571,4.664,1.714,7.707c11.42,26.84,23.839,52.725,37.257,77.659
		c13.418,24.934,25.078,45.019,34.973,60.237c9.897,15.229,19.985,29.602,30.264,43.112c10.279,13.515,17.083,22.176,20.412,25.981
		c3.333,3.812,5.951,6.662,7.854,8.565l7.139,6.851c4.568,4.569,11.276,10.041,20.127,16.416
		c8.853,6.379,18.654,12.659,29.408,18.85c10.756,6.181,23.269,11.225,37.546,15.126c14.275,3.905,28.169,5.472,41.684,4.716h32.834
		c6.659-0.575,11.704-2.669,15.133-6.283l1.136-1.431c0.764-1.136,1.479-2.901,2.139-5.276c0.668-2.379,1-5,1-7.851
		c-0.195-8.183,0.428-15.558,1.852-22.124c1.423-6.564,3.045-11.513,4.859-14.846c1.813-3.33,3.859-6.14,6.136-8.418
		c2.282-2.283,3.908-3.666,4.862-4.142c0.948-0.479,1.705-0.804,2.276-0.999c4.568-1.522,9.944-0.048,16.136,4.429
		c6.187,4.473,11.99,9.996,17.418,16.56c5.425,6.57,11.943,13.941,19.555,22.124c7.617,8.186,14.277,14.271,19.985,18.274
		l5.708,3.426c3.812,2.286,8.761,4.38,14.853,6.283c6.081,1.902,11.409,2.378,15.984,1.427l73.087-1.14
		c7.229,0,12.854-1.197,16.844-3.572c3.998-2.379,6.373-5,7.139-7.851c0.764-2.854,0.805-6.092,0.145-9.712
		C546.782,404.25,546.115,401.725,545.451,400.298z"/>
            </g>
        </symbol>
		<symbol viewBox="0 0 20 19" id="vesy-ico">
            <g fill-rule="evenodd">
                <path style=" fill-rule: evenodd;" d="M1216.54,564.965l-2.77-6.566a1.777,1.777,0,0,0,.85-1.522,1.758,1.758,0,0,0-1.74-1.773,0.669,0.669,0,0,0,0,1.338,0.435,0.435,0,0,1,0,.869h-5.22v-2.642a0.66,0.66,0,1,0-1.32,0v2.643h-5.22a0.435,0.435,0,0,1,0-.87,0.669,0.669,0,0,0,0-1.338,1.758,1.758,0,0,0-1.74,1.773,1.777,1.777,0,0,0,.85,1.522l-2.77,6.566a0.664,0.664,0,0,0-.46.637,4.126,4.126,0,1,0,8.25,0,0.677,0.677,0,0,0-.46-0.637l-2.67-6.316h4.22v13.013h-2.6a0.669,0.669,0,0,0,0,1.338h6.52a0.669,0.669,0,0,0,0-1.338h-2.6V558.649h4.22l-2.67,6.316a0.677,0.677,0,0,0-.46.637,4.126,4.126,0,1,0,8.25,0A0.664,0.664,0,0,0,1216.54,564.965Zm-15.42-5.286,2.22,5.254h-4.43Zm0,8.777a2.807,2.807,0,0,1-2.72-2.185h5.45A2.827,2.827,0,0,1,1201.12,568.456Zm13.97-3.523h-4.43l2.22-5.254Zm-2.21,3.523a2.827,2.827,0,0,1-2.73-2.185h5.45A2.807,2.807,0,0,1,1212.88,568.456Z" transform="translate(-1197 -554)"/>
            </g>
        </symbol>
        <symbol viewBox="0 0 451 451" id="loop-l-ico">
            <g fill-rule="evenodd">
                <path d="M447.05,428l-109.6-109.6c29.4-33.8,47.2-77.9,47.2-126.1C384.65,86.2,298.35,0,192.35,0C86.25,0,0.05,86.3,0.05,192.3
		s86.3,192.3,192.3,192.3c48.2,0,92.3-17.8,126.1-47.2L428.05,447c2.6,2.6,6.1,4,9.5,4s6.9-1.3,9.5-4
		C452.25,441.8,452.25,433.2,447.05,428z M26.95,192.3c0-91.2,74.2-165.3,165.3-165.3c91.2,0,165.3,74.2,165.3,165.3
		s-74.1,165.4-165.3,165.4C101.15,357.7,26.95,283.5,26.95,192.3z"/>

            </g>
        </symbol>
		
		
    </defs>
</svg>
