<svg xmlns="http://www.w3.org/2000/svg" viewBox="0 0 250.37 72.75"><defs><style>.cls-1,.cls-3{fill:#747d84;}.cls-2{fill:#c20d19;}.cls-2,.cls-3{fill-rule:evenodd;}</style></defs><title>logo</title><g id="Слой_2" data-name="Слой 2"><g id="Layer_1" data-name="Layer 1"><path class="cls-1" d="M175.63,50.54a9.87,9.87,0,0,1-1.41.31,3.28,3.28,0,0,0-2.39,1.26,4.88,4.88,0,0,0-.74,2.23h0a2.53,2.53,0,0,1,2.33-1.52c1.66,0,2.87,1.18,2.87,3.32s-1.14,3.56-3.12,3.56c-2.36,0-3.14-2.26-3.14-4.5a6,6,0,0,1,1-3.73,4.06,4.06,0,0,1,2.9-1.58,10.11,10.11,0,0,0,1.66-.37Zm-2.41,3.18a1.63,1.63,0,0,0-1.51.92,2.89,2.89,0,0,0-.34,1.44c0,1.11.54,2.71,1.88,2.71s1.85-1.31,1.85-2.55S174.67,53.72,173.22,53.72Z"/><path class="cls-1" d="M178.57,56.41a2.16,2.16,0,0,0,2.31,2.34,4.5,4.5,0,0,0,1.86-.35l.21.87a5.36,5.36,0,0,1-2.24.42,3.12,3.12,0,0,1-3.31-3.39c0-2,1.19-3.63,3.16-3.63,2.19,0,2.78,1.93,2.78,3.17,0,.25,0,.44,0,.57Zm3.58-.88a1.74,1.74,0,0,0-1.69-2,2,2,0,0,0-1.88,2Z"/><path class="cls-1" d="M189.65,59.3a4.42,4.42,0,0,1-1.93.39,3.2,3.2,0,0,1-3.35-3.43A3.42,3.42,0,0,1,188,52.68a4,4,0,0,1,1.7.35l-.28.95a2.8,2.8,0,0,0-1.42-.32,2.54,2.54,0,0,0,0,5.06,3.31,3.31,0,0,0,1.5-.34Z"/><path class="cls-1" d="M192,52.82v2.92h.29l2.53-2.92h1.49l-2.93,3c1.08.11,1.74.83,2.26,2a13,13,0,0,0,.73,1.64h-1.28a8.91,8.91,0,0,1-.63-1.38,2.18,2.18,0,0,0-2.22-1.58H192v3h-1.21V52.82Z"/><path class="cls-1" d="M203.48,56.13a3.28,3.28,0,0,1-3.35,3.57,3.19,3.19,0,0,1-3.22-3.46,3.28,3.28,0,0,1,3.33-3.57A3.18,3.18,0,0,1,203.48,56.13Zm-5.34.07c0,1.47.85,2.59,2.05,2.59s2-1.1,2-2.62c0-1.14-.57-2.58-2-2.58S198.14,54.92,198.14,56.2Z"/><path class="cls-1" d="M205.93,52.82v2.71h3.2V52.82h1.21v6.73h-1.21v-3h-3.2v3h-1.21V52.82Z"/><path class="cls-1" d="M212.75,56.41a2.17,2.17,0,0,0,2.31,2.34,4.52,4.52,0,0,0,1.87-.35l.2.87a5.32,5.32,0,0,1-2.24.42,3.12,3.12,0,0,1-3.3-3.39c0-2,1.19-3.63,3.15-3.63,2.2,0,2.78,1.93,2.78,3.17,0,.25,0,.44,0,.57Zm3.59-.88a1.75,1.75,0,0,0-1.7-2,2,2,0,0,0-1.87,2Z"/><path class="cls-1" d="M220.07,52.82V55c0,.85.32,1.43,1.39,1.43a2.53,2.53,0,0,0,1.45-.47V52.82h1.21v6.73h-1.21v-2.7h0a3.5,3.5,0,0,1-1.82.52,2,2,0,0,1-2.21-2.2V52.82Z"/><path class="cls-1" d="M226.75,52.82v2.71H230V52.82h1.21v6.73H230v-3h-3.2v3h-1.21V52.82Z"/><path class="cls-1" d="M233.79,52.82v2.29a6.28,6.28,0,0,1,1.1-.08c1.45,0,2.91.6,2.91,2.25a1.91,1.91,0,0,1-.7,1.56,4.22,4.22,0,0,1-2.71.78,15.61,15.61,0,0,1-1.81-.1v-6.7Zm0,5.88a6.37,6.37,0,0,0,.85.06c.93,0,2-.39,2-1.43s-1-1.42-1.89-1.42a5.81,5.81,0,0,0-.91.07Zm6.06-5.88v6.73h-1.21V52.82Z"/><path class="cls-1" d="M242.26,56.41a2.17,2.17,0,0,0,2.31,2.34,4.52,4.52,0,0,0,1.87-.35l.21.87a5.4,5.4,0,0,1-2.24.42,3.12,3.12,0,0,1-3.31-3.39c0-2,1.19-3.63,3.15-3.63,2.2,0,2.79,1.93,2.79,3.17a3.51,3.51,0,0,1,0,.57Zm3.59-.88a1.74,1.74,0,0,0-1.69-2,2,2,0,0,0-1.88,2Z"/><path class="cls-1" d="M170.51,64.72a13.37,13.37,0,0,1,2.14-.16c1.13,0,3,.18,3,1.69a1.59,1.59,0,0,1-1.4,1.51v0c1,.14,1.71.7,1.71,1.67,0,1.76-2.23,2-3.55,2-.75,0-1.53-.06-1.89-.09Zm1.15,5.84a7.81,7.81,0,0,0,1,0c.82,0,2-.19,2-1.17s-1-1.18-2.15-1.18h-.89Zm0-3.1h.92c.9,0,1.83-.27,1.83-1.06s-.58-1-1.81-1a8,8,0,0,0-.94.06Z"/><path class="cls-1" d="M183.31,67.94A3.3,3.3,0,0,1,180,71.52a3.2,3.2,0,0,1-3.23-3.47,3.28,3.28,0,0,1,3.34-3.57A3.19,3.19,0,0,1,183.31,67.94ZM178,68c0,1.48.85,2.59,2,2.59s2.05-1.1,2.05-2.62c0-1.13-.57-2.58-2-2.58S178,66.73,178,68Z"/><path class="cls-1" d="M185.14,67.46h.58c1,0,1.72-.48,1.72-1.1s-.54-1-1.3-1a3.26,3.26,0,0,0-1.63.48l-.31-.75a4.28,4.28,0,0,1,2.24-.62c1,0,2.28.46,2.28,1.77a1.71,1.71,0,0,1-1.51,1.53v0A1.78,1.78,0,0,1,189,69.5c0,1.46-1.49,2-2.9,2A4.67,4.67,0,0,1,184,71l.32-.82a3.82,3.82,0,0,0,1.78.46c1,0,1.66-.49,1.66-1.16,0-.9-1-1.15-2-1.15h-.61Z"/><path class="cls-1" d="M190.64,64.63h1.51l1.22,3.4c.17.5.46,1.32.61,1.85h0c.15-.5.53-1.57.79-2.31l1.09-2.94h1.51l.48,6.73h-1.17l-.16-3.21c0-.72-.09-1.58-.12-2.4h0c-.18.61-.36,1.15-.74,2.18l-1.29,3.39h-.89L192.27,68c-.21-.64-.5-1.61-.67-2.24h0c0,.79-.07,1.68-.11,2.42l-.17,3.18h-1.13Z"/><path class="cls-1" d="M205.56,67.94a3.3,3.3,0,0,1-3.35,3.58A3.2,3.2,0,0,1,199,68.05a3.28,3.28,0,0,1,3.34-3.57A3.19,3.19,0,0,1,205.56,67.94Zm-5.34.07c0,1.48.84,2.59,2,2.59s2-1.1,2-2.62c0-1.13-.56-2.58-2-2.58S200.22,66.73,200.22,68Z"/><path class="cls-1" d="M207.56,64.63l2.23,2.94H210V64.63h1.17v2.94h.23l2.23-2.94h1.4l-2.65,3.06a2.35,2.35,0,0,1,2,1.78,15.54,15.54,0,0,0,.74,1.89H214a9.27,9.27,0,0,1-.62-1.54,1.85,1.85,0,0,0-1.92-1.43h-.2v3H210v-3h-.22a1.85,1.85,0,0,0-1.94,1.44,10.39,10.39,0,0,1-.64,1.53h-1.18c.28-.54.5-1.25.74-1.87a2.38,2.38,0,0,1,2-1.8l-2.67-3.06Z"/><path class="cls-1" d="M217.45,64.63v2.72h3.2V64.63h1.21v6.73h-1.21v-3h-3.2v3h-1.2V64.63Z"/><path class="cls-1" d="M229.41,67.94a3.3,3.3,0,0,1-3.36,3.58,3.2,3.2,0,0,1-3.22-3.47,3.28,3.28,0,0,1,3.34-3.57A3.19,3.19,0,0,1,229.41,67.94Zm-5.34.07c0,1.48.84,2.59,2,2.59s2-1.1,2-2.62c0-1.13-.57-2.58-2-2.58S224.07,66.73,224.07,68Z"/><path class="cls-1" d="M235.75,71.11a4.46,4.46,0,0,1-1.93.39,3.19,3.19,0,0,1-3.35-3.43,3.43,3.43,0,0,1,3.61-3.58,4.26,4.26,0,0,1,1.7.35l-.28,1a2.8,2.8,0,0,0-1.42-.32,2.54,2.54,0,0,0,0,5.06,3.51,3.51,0,0,0,1.5-.33Z"/><path class="cls-1" d="M242,64.63v1h-2.1v5.75h-1.21V65.61h-2.1v-1Z"/><path class="cls-1" d="M244.16,64.63v2.84c0,1.07,0,1.74-.07,2.7h0c.4-.82.64-1.29,1.08-2.07l2.1-3.48h1.44v6.73h-1.17V68.51c0-1.1,0-1.66.08-2.75h0c-.43.86-.72,1.4-1.11,2.09-.64,1-1.38,2.33-2.1,3.51H243V64.63Z"/><path class="cls-2" d="M4.11,71.51a8.24,8.24,0,0,1-3-11.24l32.31-56A8.53,8.53,0,0,1,41,.2h3c3,.43,6,8.39,3.7,12.32l-32.31,56a8.23,8.23,0,0,1-11.24,3Z"/><path class="cls-2" d="M87.15,72.75C87.25,72.75,49.8,8,45.28.2c-.16.08-1.19-.07-1.34,0C40.21,2.53,39.77,7.71,42,11.58l32.91,57a8.32,8.32,0,0,0,7.24,4.11l5,0Z"/><path class="cls-2" d="M135.32,1.17a8.23,8.23,0,0,1,3,11.24l-32.44,56.2a8.48,8.48,0,0,1-7.54,4.1h-3c-3.06-.44-6-8.39-3.7-12.32L124.08,4.18a8.23,8.23,0,0,1,11.24-3Z"/><path class="cls-2" d="M52.16.17C52.05.17,89.51,64.89,94,72.72c.16-.08,1.19.07,1.34,0,3.73-2.31,4.16-7.48,1.93-11.35L64.39,4.3A8.28,8.28,0,0,0,57.15.19l-5,0Z"/><path class="cls-2" d="M36.52,50.76a8.23,8.23,0,0,1,8.23-8.22l21.09,0c3.19,0,1.43,1.55,2,4.48l.53,2.6c1.16,2.87,8,9.37,3.46,9.37L44.75,59a8.24,8.24,0,0,1-8.23-8.23Z"/><path class="cls-2" d="M151.47,72.45a8.22,8.22,0,0,1-8.22-8.22l0-56a8.23,8.23,0,0,1,16.45,0l0,56a8.23,8.23,0,0,1-8.23,8.22Z"/><path class="cls-3" d="M191.28.33a23.12,23.12,0,0,1,15.41,5.85,27.69,27.69,0,0,0-3,4.39,17.93,17.93,0,1,0,0,26,26.81,26.81,0,0,0,3,4.39A23.22,23.22,0,1,1,191.28.33Z"/><path class="cls-3" d="M227.14.33a23.23,23.23,0,1,1-23.22,23.22A23.23,23.23,0,0,1,227.14.33Zm0,5.29a17.93,17.93,0,1,1-17.93,17.93A17.93,17.93,0,0,1,227.14,5.62Z"/></g></g></svg>