<svg xmlns="http://www.w3.org/2000/svg" width="17" height="13" viewBox="0 0 17 13">
  <defs>
    <style>
      .cls-1 {
        fill: #505f64;
        fill-rule: evenodd;
      }
    </style>
  </defs>
  <path id="Forma_1" data-name="Forma 1" class="cls-1" d="M377.632,23.006q0.322,0.222,1.944,1.316t2.486,1.685l0.4,0.282q0.308,0.218.512,0.351c0.136,0.089.3,0.189,0.493,0.3a2.9,2.9,0,0,0,.546.249,1.54,1.54,0,0,0,.474.083h0.019a1.541,1.541,0,0,0,.475-0.083,2.891,2.891,0,0,0,.545-0.249c0.193-.111.358-0.211,0.493-0.3s0.307-.206.513-0.351,0.34-.238.4-0.282l4.44-3a4.454,4.454,0,0,0,1.157-1.136A2.4,2.4,0,0,0,393,20.476a1.4,1.4,0,0,0-.451-1.044A1.485,1.485,0,0,0,391.482,19H377.518a1.37,1.37,0,0,0-1.124.48,1.83,1.83,0,0,0-.394,1.2,2.123,2.123,0,0,0,.522,1.26A4.622,4.622,0,0,0,377.632,23.006Zm14.419,0.988q-3.111,2.05-4.724,3.186-0.54.388-.878,0.6a5.442,5.442,0,0,1-.9.443,2.793,2.793,0,0,1-1.043.226h-0.02a2.793,2.793,0,0,1-1.043-.226,5.5,5.5,0,0,1-.9-0.443q-0.336-.217-0.877-0.6-1.281-.914-4.715-3.186a4.992,4.992,0,0,1-.958-0.8v7.333a1.4,1.4,0,0,0,.446,1.044,1.478,1.478,0,0,0,1.072.434h13.964a1.48,1.48,0,0,0,1.072-.434A1.405,1.405,0,0,0,393,30.523V23.191A5.186,5.186,0,0,1,392.051,23.994Z" transform="translate(-376 -19)"/>
</svg>
