<svg xmlns="http://www.w3.org/2000/svg" width="20" height="19" viewBox="0 0 20 19">
  <defs>
    <style>
      .cls-1 {
        fill: #384248;
        fill-rule: evenodd;
      }
    </style>
  </defs>
  <path id="Forma_1" data-name="Forma 1" class="cls-1" d="M1216.54,564.965l-2.77-6.566a1.777,1.777,0,0,0,.85-1.522,1.758,1.758,0,0,0-1.74-1.773,0.669,0.669,0,0,0,0,1.338,0.435,0.435,0,0,1,0,.869h-5.22v-2.642a0.66,0.66,0,1,0-1.32,0v2.643h-5.22a0.435,0.435,0,0,1,0-.87,0.669,0.669,0,0,0,0-1.338,1.758,1.758,0,0,0-1.74,1.773,1.777,1.777,0,0,0,.85,1.522l-2.77,6.566a0.664,0.664,0,0,0-.46.637,4.126,4.126,0,1,0,8.25,0,0.677,0.677,0,0,0-.46-0.637l-2.67-6.316h4.22v13.013h-2.6a0.669,0.669,0,0,0,0,1.338h6.52a0.669,0.669,0,0,0,0-1.338h-2.6V558.649h4.22l-2.67,6.316a0.677,0.677,0,0,0-.46.637,4.126,4.126,0,1,0,8.25,0A0.664,0.664,0,0,0,1216.54,564.965Zm-15.42-5.286,2.22,5.254h-4.43Zm0,8.777a2.807,2.807,0,0,1-2.72-2.185h5.45A2.827,2.827,0,0,1,1201.12,568.456Zm13.97-3.523h-4.43l2.22-5.254Zm-2.21,3.523a2.827,2.827,0,0,1-2.73-2.185h5.45A2.807,2.807,0,0,1,1212.88,568.456Z" transform="translate(-1197 -554)"/>
</svg>
