<svg xmlns="http://www.w3.org/2000/svg" width="15" height="15" viewBox="0 0 15 15">
  <defs>
    <style>
      .cls-1 {
        fill: #505f64;
        fill-rule: evenodd;
      }
    </style>
  </defs>
  <path id="Forma_1" data-name="Forma 1" class="cls-1" d="M791,23.307a7.376,7.376,0,0,1-10.923,6.4L776,31l1.329-3.92a7.235,7.235,0,0,1-1.057-3.773A7.364,7.364,0,0,1,791,23.307Zm-7.364-6.143a6.174,6.174,0,0,0-6.191,6.143,6.074,6.074,0,0,0,1.18,3.6l-0.774,2.281,2.379-.756A6.159,6.159,0,1,0,783.636,17.164Zm3.719,7.826a0.93,0.93,0,0,0-.346-0.209c-0.181-.09-1.069-0.523-1.234-0.582a0.283,0.283,0,0,0-.406.09c-0.12.179-.466,0.582-0.572,0.7a0.277,0.277,0,0,1-.391.045,4.946,4.946,0,0,1-1.451-.889,5.375,5.375,0,0,1-1-1.24,0.259,0.259,0,0,1,.079-0.365c0.081-.08.18-0.209,0.271-0.314a1.216,1.216,0,0,0,.18-0.3,0.328,0.328,0,0,0-.015-0.314c-0.045-.09-0.406-0.971-0.557-1.33s-0.3-.3-0.406-0.3-0.225-.015-0.346-0.015a0.664,0.664,0,0,0-.481.224,2,2,0,0,0-.632,1.494,3.471,3.471,0,0,0,.737,1.852,7.383,7.383,0,0,0,3.084,2.7c1.835,0.717,1.835.478,2.166,0.448a1.822,1.822,0,0,0,1.218-.851A1.486,1.486,0,0,0,787.355,24.989Z" transform="translate(-776 -16)"/>
</svg>
