<svg id="Layer_1" data-name="Layer 1" xmlns="http://www.w3.org/2000/svg" viewBox="0 0 250.36743 72.43685">
  <defs>
    <style>
      .cls-1, .cls-3 {
        fill: #717e86;
      }

      .cls-2 {
        fill: #e30613;
      }

      .cls-2, .cls-3 {
        fill-rule: evenodd;
      }
    </style>
  </defs>
  <title>logo_AVIco</title>
  <path class="cls-1" d="M175.62814,50.36859a9.21045,9.21045,0,0,1-1.4042.30671,3.29223,3.29223,0,0,0-2.3916,1.2651,4.79734,4.79734,0,0,0-.7374,2.2251h.042a2.54472,2.54472,0,0,1,2.336-1.5161c1.6543,0,2.8642,1.1821,2.8642,3.3237,0,2.1973-1.14059,3.5596-3.1142,3.5596-2.3653,0-3.1436-2.26611-3.1436-4.5049a5.98563,5.98563,0,0,1,1.042-3.7275,4.04334,4.04334,0,0,1,2.8945-1.5845,9.8807,9.8807,0,0,0,1.669-.3628Zm-2.4052,3.18461a1.63546,1.63546,0,0,0-1.5166.9185,2.95186,2.95186,0,0,0-.334,1.4321c0,1.11179.542,2.7124,1.8769,2.7124,1.3497,0,1.8506-1.3081,1.8506-2.5459C175.09984,54.9722,174.66824,53.5532,173.22294,53.5532Z"/>
  <path class="cls-1" d="M178.56564,56.2368a2.1575,2.1575,0,0,0,2.3096,2.3369,4.41448,4.41448,0,0,0,1.86331-.34811l.209.87641a5.472,5.472,0,0,1-2.23931.417,3.12542,3.12542,0,0,1-3.3095-3.3935c0-2.0303,1.1953-3.62891,3.1572-3.62891,2.1963,0,2.7803,1.93261,2.7803,3.17041a4.885,4.885,0,0,1-.0411.5698Zm3.58891-.875a1.74377,1.74377,0,0,0-1.69631-1.99021,2.03045,2.03045,0,0,0-1.8779,1.99021Z"/>
  <path class="cls-1" d="M189.65355,59.1294a4.51248,4.51248,0,0,1-1.93361.3896,3.19692,3.19692,0,0,1-3.3505-3.435,3.41872,3.41872,0,0,1,3.6152-3.5738,4.102,4.102,0,0,1,1.6973.3482l-.2793.9453a2.83872,2.83872,0,0,0-1.418-.3198,2.53755,2.53755,0,0,0-.041,5.062,3.48537,3.48537,0,0,0,1.501-.334Z"/>
  <path class="cls-1" d="M192.02074,52.6494v2.9204h.292l2.5303-2.9204h1.4883l-2.9346,3.0454c1.0859.11179,1.7383.8345,2.2676,2.0444a13.885,13.885,0,0,0,.7226,1.6412h-1.2793a8.97754,8.97754,0,0,1-.625-1.3775,2.1864,2.1864,0,0,0-2.2255-1.5849h-.2364v2.9624h-1.209v-6.731Z"/>
  <path class="cls-1" d="M203.48363,55.9595a3.289,3.289,0,0,1-3.3515,3.5732,3.1993,3.1993,0,0,1-3.22558-3.4624,3.28566,3.28566,0,0,1,3.33688-3.57371A3.18748,3.18748,0,0,1,203.48363,55.9595Zm-5.33879.0693c0,1.4736.8466,2.5874,2.04289,2.5874,1.169,0,2.044-1.1001,2.044-2.6152,0-1.1397-.5694-2.587-2.0147-2.587C198.76884,53.414,198.14484,54.749,198.14484,56.0288Z"/>
  <path class="cls-1" d="M205.93383,52.6494v2.7124h3.1992V52.6494h1.21v6.731h-1.21V56.334h-3.1992v3.0464h-1.209v-6.731Z"/>
  <path class="cls-1" d="M212.75313,56.2368a2.15608,2.15608,0,0,0,2.3077,2.3369,4.41911,4.41911,0,0,0,1.8642-.34811l.208.87641a5.46142,5.46142,0,0,1-2.2382.417,3.12545,3.12545,0,0,1-3.3096-3.3935c0-2.0303,1.19532-3.62891,3.1562-3.62891,2.1973,0,2.7813,1.93261,2.7813,3.17041a4.63226,4.63226,0,0,1-.042.5698Zm3.587-.875a1.74364,1.74364,0,0,0-1.6953-1.99021,2.02978,2.02978,0,0,0-1.878,1.99021Z"/>
  <path class="cls-1" d="M220.07155,52.6494v2.2119c0,.8482.32028,1.4321,1.39058,1.4321a2.52846,2.52846,0,0,0,1.4463-.4726V52.6494h1.21v6.731h-1.21V56.68159h-.0273a3.52251,3.52251,0,0,1-1.8223.51571,1.9947,1.9947,0,0,1-2.2109-2.1983V52.6494Z"/>
  <path class="cls-1" d="M226.75123,52.6494v2.7124h3.19732V52.6494h1.21188v6.731h-1.21188V56.334h-3.19732v3.0464h-1.2109v-6.731Z"/>
  <path class="cls-1" d="M233.79033,52.6494v2.2939a5.85017,5.85017,0,0,1,1.0986-.082c1.4463,0,2.9062.5977,2.9062,2.2515a1.90623,1.90623,0,0,1-.6962,1.5591,4.24537,4.24537,0,0,1-2.71.7778,16.37678,16.37678,0,0,1-1.8086-.0982V52.6494Zm0,5.8828a7.12484,7.12484,0,0,0,.8496.0552c.93062,0,1.9463-.3892,1.9463-1.4321,0-1.085-.97468-1.419-1.89068-1.419a5.59114,5.59114,0,0,0-.90522.07029Zm6.0634-5.8828v6.731h-1.2089v-6.731Z"/>
  <path class="cls-1" d="M242.26393,56.2368a2.15792,2.15792,0,0,0,2.30962,2.3369,4.42252,4.42252,0,0,0,1.86418-.34811l.208.87641a5.47092,5.47092,0,0,1-2.23918.417,3.12545,3.12545,0,0,1-3.30962-3.3935c0-2.0303,1.1963-3.62891,3.1572-3.62891,2.1963,0,2.7813,1.93261,2.7813,3.17041a4.84273,4.84273,0,0,1-.042.5698Zm3.5889-.875a1.74372,1.74372,0,0,0-1.6954-1.99021,2.03062,2.03062,0,0,0-1.87888,1.99021Z"/>
  <path class="cls-1" d="M170.51,64.5459a14.23749,14.23749,0,0,1,2.1416-.1548c1.12691,0,2.9902.1816,2.9902,1.6831a1.59276,1.59276,0,0,1-1.40429,1.5161v.0288c.98729.1387,1.71.6949,1.71,1.668,0,1.7661-2.22461,1.9893-3.54691,1.9893-.75,0-1.5283-.0557-1.8906-.0835Zm1.1543,5.8403a7.44244,7.44244,0,0,0,.9873.0557c.8213,0,2.04491-.1944,2.04491-1.1685,0-.9721-.97361-1.1826-2.14161-1.1826h-.8906Zm.0146-3.1011h.917c.9043,0,1.836-.2646,1.836-1.0561,0-.668-.585-.9883-1.8077-.9883a8.64646,8.64646,0,0,0-.9453.0557Z"/>
  <path class="cls-1" d="M183.30784,67.772a3.29,3.29,0,0,1-3.3515,3.5737,3.19919,3.19919,0,0,1-3.2256-3.4629,3.28546,3.28546,0,0,1,3.3359-3.5737A3.18768,3.18768,0,0,1,183.30784,67.772Zm-5.3398.0693c0,1.4736.8486,2.5864,2.0439,2.5864,1.169,0,2.044-1.09911,2.044-2.6142,0-1.1397-.56939-2.5865-2.0156-2.5865C178.593,65.227,177.968,66.562,177.968,67.8413Z"/>
  <path class="cls-1" d="M185.135,67.2851h.584c1.0283,0,1.7236-.4736,1.7236-1.0991,0-.5976-.543-.9731-1.3076-.9731a3.26126,3.26126,0,0,0-1.627.4726l-.3047-.75091a4.26877,4.26877,0,0,1,2.2383-.61139c1.0283,0,2.2803.4585,2.2803,1.7657a1.71524,1.71524,0,0,1-1.5146,1.5302v.0269a1.79056,1.79056,0,0,1,1.8349,1.68259c0,1.46091-1.4873,2.00291-2.9072,2.00291a4.60778,4.60778,0,0,1-2.1826-.542l.3193-.8203a3.87844,3.87844,0,0,0,1.7803.4585c1.0146,0,1.6553-.4863,1.6553-1.1543,0-.90381-.9454-1.15381-1.961-1.15381h-.6113Z"/>
  <path class="cls-1" d="M190.64484,64.4619h1.5019l1.2236,3.3921c.1661.5024.459,1.3223.6114,1.85059h.0273c.1543-.50049.5293-1.57079.793-2.30809l1.0859-2.9346h1.51561l.47169,6.731h-1.167l-.1533-3.2129c-.041-.7237-.0976-1.5845-.125-2.4063h-.042c-.1816.6123-.3613,1.1558-.7373,2.1841l-1.293,3.3926h-.8906l-1.1963-3.3233c-.208-.6401-.5-1.6132-.6679-2.2387h-.0547c-.0274.7929-.0684,1.6831-.1114,2.4204l-.1669,3.1841h-1.125Z"/>
  <path class="cls-1" d="M205.55783,67.772a3.29019,3.29019,0,0,1-3.3525,3.5737,3.19973,3.19973,0,0,1-3.22559-3.4629,3.28619,3.28619,0,0,1,3.33689-3.5737A3.18822,3.18822,0,0,1,205.55783,67.772Zm-5.3398.0693c0,1.4736.8467,2.5864,2.043,2.5864,1.1689,0,2.0439-1.09911,2.0439-2.6142,0-1.1397-.5693-2.5865-2.0156-2.5865C200.842,65.227,200.218,66.562,200.218,67.8413Z"/>
  <path class="cls-1" d="M207.56273,64.4619l2.2246,2.9346h.251V64.4619h1.168v2.9346h.2373l2.2246-2.9346h1.40432l-2.65722,3.0591a2.34869,2.34869,0,0,1,2.0166,1.7812,16.32729,16.32729,0,0,0,.7382,1.8907h-1.22458a10.03279,10.03279,0,0,1-.61132-1.544,1.8617,1.8617,0,0,0-1.9199-1.4321h-.208v2.9761h-1.168V68.2168h-.2217a1.84005,1.84005,0,0,0-1.9326,1.44579,12.08853,12.08853,0,0,1-.6406,1.53031h-1.1826a19.78513,19.78513,0,0,0,.7373-1.878,2.381,2.381,0,0,1,2.0312-1.7939l-2.6709-3.0591Z"/>
  <path class="cls-1" d="M217.45433,64.4619v2.7124h3.19922V64.4619h1.211v6.731h-1.211V68.1465h-3.19922v3.0464h-1.209v-6.731Z"/>
  <path class="cls-1" d="M229.40555,67.772a3.29,3.29,0,0,1-3.35162,3.5737,3.19974,3.19974,0,0,1-3.2256-3.4629,3.28574,3.28574,0,0,1,3.337-3.5737A3.18749,3.18749,0,0,1,229.40555,67.772Zm-5.33992.0693c0,1.4736.8477,2.5864,2.044,2.5864,1.168,0,2.043-1.09911,2.043-2.6142,0-1.1397-.5694-2.5865-2.0157-2.5865S224.06563,66.562,224.06563,67.8413Z"/>
  <path class="cls-1" d="M235.75123,70.9424a4.52327,4.52327,0,0,1-1.9346.3891,3.19732,3.19732,0,0,1-3.3506-3.4345,3.41982,3.41982,0,0,1,3.6153-3.5738,4.10279,4.10279,0,0,1,1.69722.3477l-.27832.9453a2.84535,2.84535,0,0,0-1.4189-.3198,2.53755,2.53755,0,0,0-.041,5.062,3.47339,3.47339,0,0,0,1.5009-.334Z"/>
  <path class="cls-1" d="M241.95633,64.4619v.9741h-2.0996v5.7569h-1.209V65.436h-2.0996v-.9741Z"/>
  <path class="cls-1" d="M244.15743,64.4619v2.8364c0,1.07129-.0146,1.73829-.0693,2.69829l.041.01411c.4033-.8198.6407-1.2934,1.085-2.0722l2.0996-3.4766h1.4316v6.731h-1.1679V68.3418c0-1.0991.0283-1.668.084-2.7534h-.043c-.4297.8623-.7207,1.4043-1.1113,2.0864-.6397,1.0425-1.377,2.3359-2.10058,3.5181h-1.40432v-6.731Z"/>
  <path class="cls-2" d="M4.11255,71.334A8.22344,8.22344,0,0,1,1.10374,60.09959L33.41234,4.1352a8.508,8.508,0,0,1,7.542-4.1025l3.001.0073c3.0586.4322,5.9727,8.3867,3.70121,12.3198L15.34694,68.3237A8.22489,8.22489,0,0,1,4.11255,71.334Z"/>
  <path class="cls-2" d="M87.14674,72.5747c.1064,0-37.3437-64.7183-41.86619-72.5503-.16021.0854-1.18851-.0659-1.33991.0278-3.7343,2.3111-4.166,7.4839-1.9335,11.3516l32.9111,57.0444a8.3187,8.3187,0,0,0,7.2441,4.1128l4.9844.0137Z"/>
  <path class="cls-2" d="M135.31564,1.001a8.22375,8.22375,0,0,1,3.0098,11.2338l-32.4306,56.2051a8.504,8.504,0,0,1-7.542,4.1016l-3-.0073c-3.0586-.4312-5.9727-8.3863-3.7022-12.3194l32.4297-56.2036a8.22529,8.22529,0,0,1,11.2353-3.0102Z"/>
  <path class="cls-2" d="M52.16144,0c-.1075,0,37.3437,64.7187,41.8652,72.5503.1601-.0855,1.1894.0659,1.3418-.0279,3.7324-2.311,4.165-7.4834,1.9326-11.3515L64.38994,4.1255A8.32294,8.32294,0,0,0,57.14574.0137L52.16144,0Z"/>
  <path class="cls-2" d="M36.52374,50.5918a8.22469,8.22469,0,0,1,8.2236-8.2241l21.0937-.021c3.1924,0,1.4317,1.5537,2.0293,4.4804l.5323,2.6016c1.1543,2.8652,7.9961,9.3667,3.455,9.3667l-27.1103.0215a8.22555,8.22555,0,0,1-8.2236-8.2251Z"/>
  <path class="cls-2" d="M151.47294,72.2812a8.22564,8.22564,0,0,1-8.2237-8.2251l-.0214-56.0029a8.2241,8.2241,0,1,1,16.4482,0l.02151,56.0029a8.22577,8.22577,0,0,1-8.22461,8.2251Z"/>
  <path class="cls-3" d="M191.28344.1567a23.1319,23.1319,0,0,1,15.40919,5.8526,26.90506,26.90506,0,0,0-3.041,4.3925,17.93115,17.93115,0,1,0,0,25.9571,26.95219,26.95219,0,0,0,3.041,4.3935A23.223,23.223,0,1,1,191.28344.1567Z"/>
  <path class="cls-3" d="M227.14283.1567a23.22485,23.22485,0,1,1-23.2246,23.2246A23.22766,23.22766,0,0,1,227.14283.1567Zm0,5.29489a17.93,17.93,0,1,1-17.9297,17.92971,17.93126,17.93126,0,0,1,17.9297-17.92971Z"/>
</svg>
