<svg xmlns="http://www.w3.org/2000/svg" width="25" height="17" viewBox="0 0 25 17"><g><g><path fill="#ff343b" d="M22.71 14.715A2.28 2.28 0 0 1 20.438 17a2.32 2.32 0 0 1-1.63-.67 2.245 2.245 0 0 1-.681-1.615c0-.61.244-1.178.682-1.615a2.312 2.312 0 0 1 1.629-.67 2.28 2.28 0 0 1 2.27 2.285zm-1.019 0c0-.701-.56-1.27-1.252-1.27-.703 0-1.293.58-1.293 1.27 0 .69.59 1.27 1.293 1.27a1.26 1.26 0 0 0 1.252-1.27zm.87-8.52a.508.508 0 0 1 .169.375v2.788a.51.51 0 0 1-.51.508h-4.143a.51.51 0 0 1-.51-.508V5.194c0-.28.23-.508.51-.508h2.611c.128 0 .25.046.341.132zm-.85.599L20.49 5.697h-1.904V8.85h3.125zm-11.433 7.92A2.28 2.28 0 0 1 8.008 17a2.32 2.32 0 0 1-1.63-.67 2.244 2.244 0 0 1-.682-1.615 2.312 2.312 0 0 1 2.311-2.285 2.28 2.28 0 0 1 2.27 2.285zm-1.018 0c0-.7-.56-1.268-1.252-1.268-.703 0-1.294.578-1.294 1.269 0 .69.59 1.27 1.293 1.27a1.26 1.26 0 0 0 1.253-1.27zM5.12 13.563a.51.51 0 0 1-.509.508H3.08a.51.51 0 0 1-.51-.508v-1.858a.51.51 0 0 1 1.019 0v1.35h1.023a.51.51 0 0 1 .51.508zm1.563-2.767H.509A.51.51 0 0 1 0 10.287c0-.28.23-.508.509-.508h6.175a.507.507 0 1 1 0 1.015zM1.038 7.94c0-.28.23-.502.51-.502h.005l6.174.035c.28 0 .51.229.504.513a.513.513 0 0 1-.514.503l-6.175-.036a.504.504 0 0 1-.504-.513zm1.034-2.3c0-.28.229-.508.509-.508h6.175a.51.51 0 0 1 .509.508.51.51 0 0 1-.51.508H2.582a.51.51 0 0 1-.51-.508zM25 5.859l-.04 7.698c0 .28-.23.503-.51.503h-1.033a.51.51 0 0 1-.51-.508c0-.28.23-.508.51-.508h.53l.035-6.951-3.32-2.742H16.56v9.703h1.023c.28 0 .509.229.509.508a.51.51 0 0 1-.51.508h-6.215a.51.51 0 0 1-.509-.508c0-.28.23-.508.51-.508h4.174V1.015H3.589v3.21a.51.51 0 0 1-1.018 0V.507A.51.51 0 0 1 3.08 0h12.966a.51.51 0 0 1 .509.508v1.828h4.286c.122 0 .234.04.326.116l3.645 3.011A.535.535 0 0 1 25 5.86z"/></g></g></svg>